<svg xmlns="http://www.w3.org/2000/svg" width="25" height="25" viewBox="0 0 24 24">
    <path fill="#ffffff"
        d="M4 12a.5.5 0 0 0 .5.5h8.793l-2.647 2.646a.5.5 0 1 0 .707.708l3.5-3.5a.5.5 0 0 0 0-.707l-3.5-3.5a.5.5 0 0 0-.707.707l2.647 2.646H4.5a.5.5 0 0 0-.5.5M17.5 2h-11A2.5 2.5 0 0 0 4 4.5v4a.5.5 0 0 0 1 0v-4A1.5 1.5 0 0 1 6.5 3h11A1.5 1.5 0 0 1 19 4.5v15a1.5 1.5 0 0 1-1.5 1.5h-11A1.5 1.5 0 0 1 5 19.5v-4a.5.5 0 0 0-1 0v4A2.5 2.5 0 0 0 6.5 22h11a2.5 2.5 0 0 0 2.5-2.5v-15A2.5 2.5 0 0 0 17.5 2" />
</svg>